<?xml version="1.0" encoding="UTF-8" standalone="no"?>
<!-- Created with Inkscape (http://www.inkscape.org/) -->
<svg width="512" height="575.96692" viewBox="0 0 512.00001 575.96692" version="1.1" id="svg5" xml:space="preserve" inkscape:version="1.2.1 (9c6d41e410, 2022-07-14)" sodipodi:docname="SheepCloud.svg" xmlns:inkscape="http://www.inkscape.org/namespaces/inkscape" xmlns:sodipodi="http://sodipodi.sourceforge.net/DTD/sodipodi-0.dtd" xmlns="http://www.w3.org/2000/svg" xmlns:svg="http://www.w3.org/2000/svg"><sodipodi:namedview id="namedview7" pagecolor="#505050" bordercolor="#eeeeee" borderopacity="1" inkscape:showpageshadow="0" inkscape:pageopacity="0" inkscape:pagecheckerboard="0" inkscape:deskcolor="#505050" inkscape:document-units="mm" showgrid="false" inkscape:zoom="0.74909969" inkscape:cx="242.29085" inkscape:cy="337.73876" inkscape:window-width="1920" inkscape:window-height="1027" inkscape:window-x="-8" inkscape:window-y="-8" inkscape:window-maximized="1" inkscape:current-layer="svg5"/><defs id="defs2"/><path style="opacity:1;fill:#6c5353;fill-opacity:1;stroke:#000000;stroke-width:4.37215;stroke-linecap:round;stroke-linejoin:round;stop-color:#000000" d="m 221.72313,264.50301 c 9.8682,-8.40824 -10.71723,-37.38786 -10.71723,-37.38786 -25.29454,11.67475 -23.2877,26.98641 -23.2877,26.98641 0,0 23.32463,19.5015 34.00493,10.40145 z" id="path1779" sodipodi:nodetypes="sccs" transform="translate(-94.141437,-107.37825)"/><path style="opacity:1;fill:#e6e6e6;fill-opacity:1;stroke:#000000;stroke-width:4.37215;stroke-linecap:round;stroke-linejoin:round;stop-color:#000000" d="m 226.25527,255.63001 c 3.6883,4.52346 68.94789,86.86682 68.94789,86.86682 l -27.91461,24.64413 -58.14399,-101.32449 c -1.24761,-16.78988 6.31308,-16.60695 17.11071,-10.18646 z" id="path1781" sodipodi:nodetypes="ccccc" transform="translate(-94.141437,-107.37825)"/><path style="opacity:1;fill:#6c5353;fill-opacity:1;stroke:#000000;stroke-width:4.37215;stroke-linecap:round;stroke-linejoin:round;stop-color:#000000" d="m 404.07504,601.53001 c -12.69275,2.64047 -8.54118,37.94417 -8.54118,37.94417 l 14.66068,-14.96399 18.7354,10.9927 c 0,0 -11.11754,-36.83066 -24.8549,-33.97288 z" id="path1707" sodipodi:nodetypes="scccs" transform="translate(-94.141437,-107.37825)"/><path style="opacity:1;fill:#e6e6e6;fill-opacity:1;stroke:#000000;stroke-width:4.37215;stroke-linecap:round;stroke-linejoin:round;stop-color:#000000" d="M 395.84064,607.13922 C 394.77571,601.4007 377.04202,497.84018 377.04202,497.84018 l 36.31715,-8.22341 2.38162,116.79776 z" id="path1709" transform="translate(-94.141437,-107.37825)"/><path style="opacity:1;fill:#6c5353;fill-opacity:1;stroke:#000000;stroke-width:4.37215;stroke-linecap:round;stroke-linejoin:round;stop-color:#000000" d="m 225.56082,568.65685 c -12.29782,-4.10398 -26.47184,28.49479 -26.47184,28.49479 l 20.19867,-5.55617 10.66088,18.92618 c 0,0 8.92207,-37.42314 -4.38771,-41.8648 z" id="path1508" sodipodi:nodetypes="scccs" transform="translate(-94.141437,-107.37825)"/><path style="opacity:1;fill:#e6e6e6;fill-opacity:1;stroke:#000000;stroke-width:4.37215;stroke-linecap:round;stroke-linejoin:round;stop-color:#000000" d="m 215.62239,569.36146 c 1.96685,-5.49511 38.74405,-103.91605 38.74405,-103.91605 l 35.5233,11.16488 -56.70469,102.13701 z" id="path1573" transform="translate(-94.141437,-107.37825)"/><path style="opacity:1;fill:#e6e6e6;fill-opacity:1;stroke:none;stroke-width:4.37215;stroke-linecap:round;stroke-linejoin:round;stop-color:#000000" d="m 485.31464,354.28957 c 44.61219,48.09138 24.98916,147.20396 -57.48185,137.65858 7.66273,95.90176 -138.47721,103.35132 -166.91821,9.66907 -67.85231,18.0132 -122.30237,-48.98032 -58.34526,-116.42001 -65.11945,-53.31441 25.89769,-174.37827 133.97581,-118.86277 -13.353,-64.44608 129.86117,-15.71537 88.76187,16.84259 40.03759,-11.1472 78.90821,36.23403 60.00764,71.11254 z" id="path311" sodipodi:nodetypes="ccccccc" transform="translate(-94.141437,-107.37825)"/><path style="opacity:1;fill:none;fill-opacity:1;stroke:#000000;stroke-width:4.37215;stroke-linecap:round;stroke-linejoin:round;stop-color:#000000" d="m 465.76646,353.86009 c 0,0 13.95516,-6.06934 21.23485,2.30734 42.38071,48.76757 22.2431,145.20366 -59.16877,135.78088 m -9.69179,-27.58742 c 0,0 9.02428,16.6205 9.8092,29.23898 5.86782,94.33241 -138.75887,101.15908 -167.0357,8.01743 m 34.62411,-17.91322 c 0,0 -10.51348,12.01731 -36.33987,18.35137 -67.04755,16.44377 -120.04658,-49.98783 -56.62942,-116.85816 m 0,0 C 137.44954,331.88296 228.46668,210.81911 336.5448,266.3346 c -13.40373,-62.13957 130.20835,-21.01531 88.76187,16.84259 40.03759,-11.1472 78.90829,36.23403 60.00764,71.11255" id="path1017" sodipodi:nodetypes="csccsccsccccc" transform="translate(-94.141437,-107.37825)"/><path id="path1187" style="opacity:1;fill:#e6e6e6;fill-opacity:1;stroke:#000000;stroke-width:4.37215;stroke-linecap:round;stroke-linejoin:round;stop-color:#000000" d="m 391.71997,530.03971 c -6.4851,-1.6713 -14.88211,-6.1166 -19.31006,-17.69567 5.75513,18.74144 -45.45908,17.46491 -40.16218,-6.58921 -2.88818,11.19099 -22.16692,30.38215 -33.83325,29.33978 -5.63416,74.56041 104.233,111.21821 93.30549,-5.0549 z" transform="translate(-94.141437,-107.37825)"/><path id="path1448" style="opacity:1;stroke-width:1.16312;stroke-linecap:round;stroke-linejoin:round;stop-color:#000000" transform="rotate(7.4172302,781.23384,-779.88643)" d="m 393.27022,489.0784 a 3.8817315,11.645193 0 0 1 -3.88173,11.64519 3.8817315,11.645193 0 0 1 -3.88173,-11.64519 3.8817315,11.645193 0 0 1 3.88173,-11.64519 3.8817315,11.645193 0 0 1 3.88173,11.64519 z"/><path id="ellipse1502" style="opacity:1;stroke-width:1.16312;stroke-linecap:round;stroke-linejoin:round;stop-color:#000000" transform="rotate(7.4172302,781.23384,-779.88643)" d="m 438.94502,487.08203 a 3.8817315,11.645193 0 0 1 -3.88173,11.64519 3.8817315,11.645193 0 0 1 -3.88173,-11.64519 3.8817315,11.645193 0 0 1 3.88173,-11.64519 3.8817315,11.645193 0 0 1 3.88173,11.64519 z"/><path style="opacity:1;fill:none;fill-opacity:1;stroke:#000000;stroke-width:4.37215;stroke-linecap:round;stroke-linejoin:round;stop-color:#000000" d="m 327.0066,578.03938 c -3.83413,5.52039 6.03918,15.03785 15.61613,3.45845 6.90714,8.41642 15.81468,10.78333 19.12647,1.22794" id="path1504" sodipodi:nodetypes="ccc" transform="translate(-94.141437,-107.37825)"/><path style="opacity:1;fill:none;fill-opacity:1;stroke:#000000;stroke-width:4.37215;stroke-linecap:round;stroke-linejoin:round;stop-color:#000000" d="m 335.8953,567.79434 8.3081,4.34351 9.78846,-3.61956" id="path1506" transform="translate(-94.141437,-107.37825)"/><path style="opacity:1;fill:#e6e6e6;fill-opacity:1;stroke:#000000;stroke-width:4.37215;stroke-linecap:round;stroke-linejoin:round;stop-color:#000000" d="m 368.51034,280.40551 c -3.71383,-12.89923 8.28927,-29.53328 25.24191,-25.04502 -16.19689,-12.92038 17.38477,-48.57076 30.76949,-33.91719 2.03055,-25.57397 35.06384,-21.42149 35.06384,-21.42149 l 22.13817,2.4445 -1.12533,21.51444 -33.12112,22.11693 -25.2781,21.63648 -16.75022,34.55149" id="path1774" sodipodi:nodetypes="ccccccccc" transform="translate(-94.141437,-107.37825)"/><path style="opacity:1;fill:none;fill-opacity:1;stroke:#000000;stroke-width:4.37215;stroke-linecap:round;stroke-linejoin:round;stop-color:#000000" d="m 331.56964,586.75515 c 6.7423,13.62036 14.93283,11.31046 23.73056,2.32146" id="path1850" sodipodi:nodetypes="cc" transform="translate(-94.141437,-107.37825)"/><path style="opacity:1;fill:#e6e6e6;fill-opacity:1;stroke:#000000;stroke-width:4.37215;stroke-linecap:round;stroke-linejoin:round;stop-color:#000000" d="m 314.02962,500.60285 -21.66705,-45.91351 c -19.60353,26.82588 7.73825,60.87411 7.73825,60.87411 z" id="path1852" sodipodi:nodetypes="cccc" transform="translate(-94.141437,-107.37825)"/><path style="opacity:1;fill:#e6e6e6;fill-opacity:1;stroke:#000000;stroke-width:4.37215;stroke-linecap:round;stroke-linejoin:round;stop-color:#000000" d="m 379.57096,506.26726 3.21156,-50.66758 c 28.1134,17.70774 15.2521,59.43829 15.2521,59.43829 z" id="path2130" sodipodi:nodetypes="cccc" transform="translate(-94.141437,-107.37825)"/></svg>